<?xml version="1.0" encoding="utf-8"?>
<svg width="800px" height="800px" viewBox="0 0 24 24" fill="none" xmlns="http://www.w3.org/2000/svg">
<path d="M9.00195 17H5.60806C4.05899 17 3.28446 17 2.93506 16.7104C2.63288 16.4593 2.48576 16.0763 2.54107 15.6954C2.60509 15.2545 3.15838 14.7012 4.26495 13.5947L5.00001 12.8596C5.31994 12.5397 5.50001 12.0993 5.50001 11.6396V8.5C5.50001 5.46243 7.96244 3 11 3C14.0376 3 16.5 5.46243 16.5 8.5V11.6396C16.5 12.0993 16.6801 12.5397 17 12.8596L17.7351 13.5947C18.8416 14.7012 19.3949 15.2545 19.4589 15.6954C19.5142 16.0763 19.3671 16.4593 19.0649 16.7104C18.7155 17 17.941 17 16.3919 17H15.002M9.00195 17H15.002M9.00195 17C9.00195 17 9 17.0846 9 17.5C9 18.8807 10.1193 20 11.5 20C12.8807 20 14 18.8807 14 17.5C14 17.0846 14 17 14 17L15.002 17" stroke="#000000" stroke-width="2" stroke-linecap="round" stroke-linejoin="round"/>
</svg>
