<?xml version="1.0" encoding="utf-8"?>
<svg width="800px" height="800px" viewBox="0 0 24 24" fill="none" xmlns="http://www.w3.org/2000/svg">
<path d="M3 5.5C3 14.0604 9.93959 21 18.5 21C18.8862 21 19.2691 20.9859 19.6483 20.9581C20.0834 20.9262 20.3009 20.9103 20.499 20.7963C20.6772 20.6943 20.8166 20.5343 20.9 20.3414C21 20.1217 21 19.8786 21 19.3923V16.6389C21 16.2057 21 15.9891 20.9335 15.8014C20.8749 15.6356 20.7759 15.4876 20.6454 15.3703C20.4972 15.2369 20.2975 15.1549 19.8982 14.9909L17.2272 13.9428C16.7558 13.7558 16.5201 13.6623 16.2805 13.6735C16.0681 13.6833 15.8617 13.7538 15.6859 13.8774C15.4861 14.0165 15.3461 14.2444 15.0661 14.7001L14 16.5C11.3501 15.2999 8.70004 12.6999 7.5 10L9.29986 8.93392C9.75559 8.65388 9.98345 8.51386 10.1226 8.31408C10.2462 8.13829 10.3167 7.93187 10.3265 7.71954C10.3377 7.47985 10.2442 7.24421 10.0572 6.77293L9.00914 4.10192C8.84503 3.70258 8.76297 3.50291 8.62974 3.35462C8.51244 3.22459 8.36418 3.12557 8.19851 3.06645C8.01082 3 7.79418 3 7.3609 3H4.60673C4.12044 3 3.87729 3 3.65753 3.09987C3.46464 3.18326 3.30446 3.32295 3.20251 3.50073C3.08842 3.69887 3.07257 3.91613 3.04086 4.35065C3.01314 4.72953 3 5.11288 3 5.5Z" stroke="#000000" stroke-width="2" stroke-linecap="round" stroke-linejoin="round"/>
</svg>
