<?xml version="1.0" encoding="utf-8"?>
<svg width="800px" height="800px" viewBox="0 0 24 24" fill="none" xmlns="http://www.w3.org/2000/svg">
<path d="M3 9C3 8.44772 3.44772 8 4 8H20C20.5523 8 21 8.44772 21 9V10.5C21 10.5 19.5 10.5 19.5 12C19.5 13.5 21 13.5 21 13.5V15C21 15.5523 20.5523 16 20 16H4C3.44772 16 3 15.5523 3 15V13.5C3 13.5 4.5 13.5 4.5 12C4.5 10.5 3 10.5 3 10.5V9Z" stroke="#000000" stroke-width="2" stroke-linecap="round" stroke-linejoin="round"/>
<path d="M9 8V16M9 11H15M9 13H13" stroke="#000000" stroke-width="2" stroke-linecap="round"/>
</svg>
