<?xml version="1.0" encoding="utf-8"?>
<svg width="800px" height="800px" viewBox="0 0 24 24" fill="none" xmlns="http://www.w3.org/2000/svg">
<path d="M3 12C3 12 4.5 10 6 10C7.5 10 9 12 10.5 12C12 12 13.5 10 15 10C16.5 10 18 12 19.5 12C21 12 21 10 21 10" stroke="#000000" stroke-width="2" stroke-linecap="round" stroke-linejoin="round"/>
<path d="M3 17C3 17 4.5 15 6 15C7.5 15 9 17 10.5 17C12 17 13.5 15 15 15C16.5 15 18 17 19.5 17C21 17 21 15 21 15" stroke="#000000" stroke-width="2" stroke-linecap="round" stroke-linejoin="round"/>
<path d="M12 3C12 3 10 5.5 10 7C10 8.5 11 10 12 10C13 10 14 8.5 14 7C14 5.5 12 3 12 3Z" stroke="#000000" stroke-width="2" stroke-linecap="round" stroke-linejoin="round"/>
</svg>
