<?xml version="1.0" encoding="utf-8"?>
<svg width="800px" height="800px" viewBox="0 0 24 24" fill="none" xmlns="http://www.w3.org/2000/svg">
<path d="M12 22V11" stroke="#000000" stroke-width="2" stroke-linecap="round"/>
<path d="M12 11C12 11 9 9 7 6C9 6 12 8 12 11Z" stroke="#000000" stroke-width="2" stroke-linecap="round" stroke-linejoin="round"/>
<path d="M12 11C12 11 15 9 17 6C15 6 12 8 12 11Z" stroke="#000000" stroke-width="2" stroke-linecap="round" stroke-linejoin="round"/>
<path d="M12 15C12 15 9 13 7 10C9 10 12 12 12 15Z" stroke="#000000" stroke-width="2" stroke-linecap="round" stroke-linejoin="round"/>
<path d="M12 15C12 15 15 13 17 10C15 10 12 12 12 15Z" stroke="#000000" stroke-width="2" stroke-linecap="round" stroke-linejoin="round"/>
<path d="M12 7C12 7 10.5 5 9 3C11 3 12 5 12 7Z" stroke="#000000" stroke-width="2" stroke-linecap="round" stroke-linejoin="round"/>
<path d="M12 7C12 7 13.5 5 15 3C13 3 12 5 12 7Z" stroke="#000000" stroke-width="2" stroke-linecap="round" stroke-linejoin="round"/>
</svg>
