<?xml version="1.0" encoding="utf-8"?>
<svg width="800px" height="800px" viewBox="0 0 24 24" fill="none" xmlns="http://www.w3.org/2000/svg">
<path d="M14.7 6.3C14.9 6.9 15 7.4 15 8C15 10.8 12.8 13 10 13C9.4 13 8.8 12.9 8.3 12.7L4.7 16.3C4.3 16.7 4 17.4 4 18C4 19.1 4.9 20 6 20C6.6 20 7.3 19.7 7.7 19.3L11.3 15.7C11.8 15.9 12.4 16 13 16C14.6 16 16.1 15.4 17.2 14.3C18.4 13.1 19 11.6 19 10C19 9.4 18.9 8.8 18.7 8.3L15.6 11.4L12.6 8.4L15.7 5.3C15.4 5.1 15.1 5.1 14.7 6.3Z" stroke="#000000" stroke-width="2" stroke-linecap="round" stroke-linejoin="round"/>
</svg>
