<?xml version="1.0" encoding="utf-8"?>
<svg width="800px" height="800px" viewBox="0 0 24 24" fill="none" xmlns="http://www.w3.org/2000/svg">
<path d="M14.7 6.3C15.5 7.2 16 8.4 16 9.7C16 12.5 13.8 14.8 11 14.9L6.7 19.3C6.3 19.7 5.7 19.7 5.3 19.3L4.7 18.7C4.3 18.3 4.3 17.7 4.7 17.3L9.1 12.9C8 12.2 7.2 11.2 6.9 10C6.4 8 7.3 6 9 5.1L11.6 7.7L13.4 5.9L10.8 3.3C12.1 2.9 13.6 3.1 14.7 4.1C15.9 5.2 16.2 6.8 15.7 8.2L14.7 6.3Z" stroke="#000000" stroke-width="2" stroke-linecap="round" stroke-linejoin="round"/>
</svg>
